<svg xmlns="http://www.w3.org/2000/svg" viewBox="0 0 142.82 32.13"><defs><style>.cls-1{fill:#90c04e}.cls-2{fill:#72a6a1}.cls-3{fill:#c7de83}.cls-4{fill:#a1bbab}.cls-5{fill:#45ac53}.cls-6{fill:#a8d0e3}.cls-7{fill:#91af90}.cls-8{fill:#70b6d1}.cls-9{fill:#679b95}.cls-10{fill:#61ab7a}.cls-11{fill:#a25a28}.cls-12{fill:#cc775d}</style></defs><title>biopama_logo</title><g id="Layer_2" data-name="Layer 2"><g id="Layer_1-2" data-name="Layer 1"><path class="cls-1" d="M.07 30.92v-4.15h2.68v.68H.81v1.05h1.67v.7H.81v1.72zm3.29 0v-2.83l.21-.09c.09 0 .27-.08.54-.14a3.58 3.58 0 0 1 .8-.1v.64a3.06 3.06 0 0 0-.8.1v2.41zm2.39-.36a1.67 1.67 0 0 1-.38-1.19 1.64 1.64 0 0 1 .38-1.18 1.37 1.37 0 0 1 1.08-.41 1.38 1.38 0 0 1 1.09.41 1.69 1.69 0 0 1 .38 1.18 1.72 1.72 0 0 1-.38 1.19 1.41 1.41 0 0 1-1.09.44 1.4 1.4 0 0 1-1.08-.44zm.54-2a1.24 1.24 0 0 0-.18.78 1.2 1.2 0 0 0 .18.78.67.67 0 0 0 .54.21.68.68 0 0 0 .55-.21 1.21 1.21 0 0 0 .17-.78 1.25 1.25 0 0 0-.17-.78.71.71 0 0 0-.55-.2.7.7 0 0 0-.54.23zm2.78 2.36v-2.8a3 3 0 0 1 1.36-.35 1.46 1.46 0 0 1 .84.23 3.11 3.11 0 0 1 1.12-.23 1.33 1.33 0 0 1 1 .34 1.24 1.24 0 0 1 .35.95v1.86H13V29a.61.61 0 0 0-.15-.45.8.8 0 0 0-.56-.15 2.73 2.73 0 0 0-.64.07.91.91 0 0 1 .14.58v1.86H11V29a.54.54 0 0 0-.15-.42.77.77 0 0 0-.55-.15 2.84 2.84 0 0 0-.51 0v2.45zm7.85 0v-4.15h.74v1.76l1.57-1.76h1l-1.67 1.83 1.85 2.32h-.94l-1.39-1.8-.42.46v1.34zm4.26 0v-2.81a3.13 3.13 0 0 1 1.43-.34 1.4 1.4 0 0 1 1 .34 1.2 1.2 0 0 1 .37.95v1.86h-.75V29a1 1 0 0 0 0-.2.76.76 0 0 0-.09-.18.43.43 0 0 0-.23-.14 1.41 1.41 0 0 0-.39 0 3.9 3.9 0 0 0-.58.05v2.44zm3.93-.36a1.67 1.67 0 0 1-.38-1.19 1.64 1.64 0 0 1 .38-1.18 1.64 1.64 0 0 1 2.17 0 1.64 1.64 0 0 1 .38 1.18 1.67 1.67 0 0 1-.38 1.19 1.64 1.64 0 0 1-2.17 0zm.54-2a1.24 1.24 0 0 0-.18.78 1.2 1.2 0 0 0 .18.78.68.68 0 0 0 .55.21.67.67 0 0 0 .54-.21 1.2 1.2 0 0 0 .18-.78 1.24 1.24 0 0 0-.18-.78.7.7 0 0 0-.54-.2.71.71 0 0 0-.55.23zm2.43-.74h.79l.66 2.24.59-2.24h.64l.59 2.24.65-2.24h.79l-1.1 3.1H31l-.51-1.78-.52 1.78h-.74zm5.41 3.1v-4.28h.74v4.28zm1.62-1.52a2 2 0 0 1 .33-1.19 1.22 1.22 0 0 1 1.06-.45 1.26 1.26 0 0 1 1 .44 1.66 1.66 0 0 1 .35 1.07 3.78 3.78 0 0 1 0 .38h-2a.66.66 0 0 0 .25.54 1 1 0 0 0 .54.14 2.45 2.45 0 0 0 1.06-.24v.6a2.58 2.58 0 0 1-1.56.25 1.54 1.54 0 0 1-.37-.14 1.13 1.13 0 0 1-.34-.27 1.31 1.31 0 0 1-.23-.46 2.22 2.22 0 0 1-.09-.67zm.74-.26h1.26a1.19 1.19 0 0 0-.19-.54.52.52 0 0 0-.44-.22.56.56 0 0 0-.44.18 1 1 0 0 0-.19.58zm2.63.19a1.65 1.65 0 0 1 .37-1.16 1.37 1.37 0 0 1 1.07-.4 3.14 3.14 0 0 1 .51.05v-1.19h.75v3.29a1 1 0 0 1-.32.74 1.38 1.38 0 0 1-1 .31h-.31a1.45 1.45 0 0 1-.36-.13 1.36 1.36 0 0 1-.36-.27 1.34 1.34 0 0 1-.25-.48 2.35 2.35 0 0 1-.1-.76zm.75 0a1.63 1.63 0 0 0 .14.8.53.53 0 0 0 .5.24c.37 0 .56-.11.56-.34V28.4a3.37 3.37 0 0 0-.49 0 .66.66 0 0 0-.53.21 1.13 1.13 0 0 0-.18.68zm2.68.03a2.16 2.16 0 0 1 .11-.71 1.29 1.29 0 0 1 .25-.47 1.23 1.23 0 0 1 .34-.26 1.4 1.4 0 0 1 .35-.13h.3a1.35 1.35 0 0 1 1 .3 1 1 0 0 1 .31.72V31a1.27 1.27 0 0 1 0 .28 1.17 1.17 0 0 1-.12.3.77.77 0 0 1-.23.28 1.31 1.31 0 0 1-.41.19 1.92 1.92 0 0 1-.61.08 3.16 3.16 0 0 1-.9-.12v-.67a2.64 2.64 0 0 0 .81.12 1.69 1.69 0 0 0 .43 0 .31.31 0 0 0 .22-.12.45.45 0 0 0 .07-.14.63.63 0 0 0 0-.16v-.17a2.69 2.69 0 0 1-.47.05 1.35 1.35 0 0 1-1-.39 1.61 1.61 0 0 1-.45-1.17zm.75 0a1.09 1.09 0 0 0 .16.7.64.64 0 0 0 .51.19 3.27 3.27 0 0 0 .45 0v-1.46c0-.23-.17-.35-.51-.35a.5.5 0 0 0-.45.22 1.29 1.29 0 0 0-.16.72zm2.6.04a2 2 0 0 1 .33-1.19 1.22 1.22 0 0 1 1.06-.45 1.25 1.25 0 0 1 1 .44 1.66 1.66 0 0 1 .35 1.07 3.78 3.78 0 0 1 0 .38h-2a.66.66 0 0 0 .25.54 1 1 0 0 0 .54.14 2.45 2.45 0 0 0 1.06-.24v.6a2.58 2.58 0 0 1-1.56.25 1.54 1.54 0 0 1-.37-.14 1.13 1.13 0 0 1-.34-.27 1.31 1.31 0 0 1-.23-.46 2.22 2.22 0 0 1-.09-.67zm.74-.26h1.26a1.19 1.19 0 0 0-.19-.54.52.52 0 0 0-.44-.22.56.56 0 0 0-.44.18 1 1 0 0 0-.19.58zm4.59-.68v-.64h.52v-.92h.75v.92h.73v.64h-.73V30a.34.34 0 0 0 .08.27.46.46 0 0 0 .3.07.78.78 0 0 0 .35-.07v.62a1.21 1.21 0 0 1-.48.09 1 1 0 0 1-.73-.27 1.09 1.09 0 0 1-.26-.76v-1.49zm2.96 2.1a1.72 1.72 0 0 1-.38-1.19 1.69 1.69 0 0 1 .38-1.18 1.39 1.39 0 0 1 1.09-.41 1.4 1.4 0 0 1 1.09.41 1.69 1.69 0 0 1 .38 1.18 1.72 1.72 0 0 1-.38 1.19 1.44 1.44 0 0 1-1.09.41 1.42 1.42 0 0 1-1.09-.41zm.55-2a1.24 1.24 0 0 0-.18.78 1.2 1.2 0 0 0 .18.78.65.65 0 0 0 .54.21.66.66 0 0 0 .54-.21 1.2 1.2 0 0 0 .18-.78 1.24 1.24 0 0 0-.18-.78.69.69 0 0 0-.54-.2.67.67 0 0 0-.54.23zm4.52 2.36l1.64-4.15h.82l1.65 4.15h-.8l-.38-1H59.8l-.38 1zm1.43-1.67h1.24l-.62-1.63zm3.17.12a1.72 1.72 0 0 1 .38-1.19 1.41 1.41 0 0 1 1.09-.41 2.32 2.32 0 0 1 .89.18v.61a2 2 0 0 0-.77-.15.93.93 0 0 0-.64.2 1.08 1.08 0 0 0-.2.76 1.1 1.1 0 0 0 .2.76.93.93 0 0 0 .64.2 1.93 1.93 0 0 0 .77-.16v.62a2.32 2.32 0 0 1-.89.18 1.41 1.41 0 0 1-1.09-.41 1.73 1.73 0 0 1-.38-1.19zm2.88-.91v-.64h.52v-.92h.75v.92h.73v.64h-.73V30a.38.38 0 0 0 .08.27.47.47 0 0 0 .3.07.78.78 0 0 0 .35-.07v.62a1.19 1.19 0 0 1-.47.09 1 1 0 0 1-.72-.27 1.05 1.05 0 0 1-.27-.76v-1.49zm2.77-1.06v-.69h.76v.69zm0 3.52v-3.1h.75v3.1zm1.94-.36a1.67 1.67 0 0 1-.38-1.19 1.64 1.64 0 0 1 .38-1.18 1.64 1.64 0 0 1 2.17 0 1.64 1.64 0 0 1 .38 1.18 1.67 1.67 0 0 1-.36 1.19 1.64 1.64 0 0 1-2.17 0zm.54-2a1.24 1.24 0 0 0-.18.78 1.2 1.2 0 0 0 .18.78.68.68 0 0 0 .55.21.67.67 0 0 0 .54-.21 1.21 1.21 0 0 0 .17-.78 1.25 1.25 0 0 0-.17-.78.7.7 0 0 0-.54-.2.71.71 0 0 0-.55.23zm2.72 2.36v-2.81a3.09 3.09 0 0 1 1.42-.34 1.43 1.43 0 0 1 1 .34 1.23 1.23 0 0 1 .36.95v1.86h-.74V29a.56.56 0 0 0 0-.2.38.38 0 0 0-.09-.18.4.4 0 0 0-.22-.14 1.49 1.49 0 0 0-.4 0 3.88 3.88 0 0 0-.57.05v2.44zm5.7-2.46v-.64h.53c0-.87.39-1.3 1.16-1.3a1.53 1.53 0 0 1 .3 0v.6h-.17a.53.53 0 0 0-.42.14.85.85 0 0 0-.12.54h.71v.64h-.71v2.46h-.75v-2.44zm2.71 2.1a1.72 1.72 0 0 1-.38-1.19 1.69 1.69 0 0 1 .38-1.18 1.38 1.38 0 0 1 1.09-.41 1.4 1.4 0 0 1 1.09.41 1.69 1.69 0 0 1 .34 1.18 1.71 1.71 0 0 1-.37 1.19 1.44 1.44 0 0 1-1.09.41 1.41 1.41 0 0 1-1.06-.41zm.54-2a1.32 1.32 0 0 0-.17.78 1.28 1.28 0 0 0 .17.78.68.68 0 0 0 .55.21.67.67 0 0 0 .54-.21 1.2 1.2 0 0 0 .18-.78 1.24 1.24 0 0 0-.18-.78.7.7 0 0 0-.54-.2.71.71 0 0 0-.57.23zm2.75 2.36v-2.83L86 28c.09 0 .27-.08.54-.14a3.58 3.58 0 0 1 .8-.1v.64a3.06 3.06 0 0 0-.8.1v2.41zM90 29.91a1.36 1.36 0 0 1 0-.2 1 1 0 0 1 .1-.24.75.75 0 0 1 .21-.26 1.14 1.14 0 0 1 .4-.2 2.22 2.22 0 0 1 .62-.08 3.5 3.5 0 0 1 .54.05c0-.4-.22-.6-.65-.6a2.56 2.56 0 0 0-.92.16v-.61a2.69 2.69 0 0 1 1-.16 1.37 1.37 0 0 1 1 .34 1.26 1.26 0 0 1 .35 1v.84a1 1 0 0 1-.32.73 1.34 1.34 0 0 1-1 .31 1.4 1.4 0 0 1-1-.31 1 1 0 0 1-.33-.77zm.75-.1c0 .33.2.5.58.5.37 0 .56-.16.56-.47v-.39a2.66 2.66 0 0 0-.45 0c-.44-.04-.73.09-.73.36zm4.87 1.11v-4.15h1.55a1.66 1.66 0 0 1 1.14.37 1.51 1.51 0 0 1 0 2.05 1.66 1.66 0 0 1-1.14.36h-.8v1.37zm.75-2h.74a.94.94 0 0 0 .67-.18.73.73 0 0 0 .18-.54.68.68 0 0 0-.18-.52.94.94 0 0 0-.67-.18h-.74zm3.01 2v-2.83l.21-.08a4.78 4.78 0 0 1 .53-.14 3.73 3.73 0 0 1 .8-.1v.64a3.12 3.12 0 0 0-.8.1v2.41zm2.38-.36a1.72 1.72 0 0 1-.38-1.19 1.69 1.69 0 0 1 .38-1.18 1.39 1.39 0 0 1 1.09-.41 1.4 1.4 0 0 1 1.09.41 1.69 1.69 0 0 1 .38 1.18 1.72 1.72 0 0 1-.38 1.19 1.44 1.44 0 0 1-1.09.41 1.42 1.42 0 0 1-1.09-.41zm.55-2a1.24 1.24 0 0 0-.18.78 1.2 1.2 0 0 0 .18.78.66.66 0 0 0 .54.21.65.65 0 0 0 .54-.21 1.2 1.2 0 0 0 .18-.78 1.24 1.24 0 0 0-.18-.78.67.67 0 0 0-.54-.2.69.69 0 0 0-.54.23zm2.35-.1v-.64h.53v-.92h.74v.92h.74v.64h-.74V30a.34.34 0 0 0 .09.27.42.42 0 0 0 .29.07.86.86 0 0 0 .36-.07v.62a1.28 1.28 0 0 1-.48.09 1 1 0 0 1-.72-.27 1 1 0 0 1-.26-.76v-1.49zm2.58.94a2 2 0 0 1 .33-1.19 1.45 1.45 0 0 1 2.09 0 1.66 1.66 0 0 1 .35 1.07 3.78 3.78 0 0 1 0 .38h-2a.66.66 0 0 0 .24.54 1 1 0 0 0 .55.14 2.44 2.44 0 0 0 1-.24v.6a2.54 2.54 0 0 1-1.55.25 1.46 1.46 0 0 1-.38-.14 1.27 1.27 0 0 1-.34-.27 1.31 1.31 0 0 1-.23-.46 2.22 2.22 0 0 1-.06-.68zm.75-.26h1.25a1.09 1.09 0 0 0-.19-.54.51.51 0 0 0-.44-.22.56.56 0 0 0-.44.18 1 1 0 0 0-.17.58zm2.63.23a1.72 1.72 0 0 1 .38-1.19 1.42 1.42 0 0 1 1.09-.41 2.32 2.32 0 0 1 .91.23v.61a2 2 0 0 0-.77-.15.9.9 0 0 0-.63.2 1 1 0 0 0-.21.76 1 1 0 0 0 .21.76.9.9 0 0 0 .63.2 1.9 1.9 0 0 0 .77-.16v.62a2.32 2.32 0 0 1-.89.18 1.42 1.42 0 0 1-1.09-.41 1.73 1.73 0 0 1-.4-1.24zm2.88-.91v-.64h.5v-.92h.75v.92h.74v.64h-.74V30a.38.38 0 0 0 .08.27.47.47 0 0 0 .3.07.86.86 0 0 0 .36-.07v.62a1.28 1.28 0 0 1-.49.11 1 1 0 0 1-.72-.27 1.05 1.05 0 0 1-.27-.76v-1.51zm2.58.94a2 2 0 0 1 .33-1.19 1.45 1.45 0 0 1 2.09 0 1.66 1.66 0 0 1 .35 1.07 3.78 3.78 0 0 1 0 .38h-2a.66.66 0 0 0 .24.54 1 1 0 0 0 .55.14 2.44 2.44 0 0 0 1-.24v.6a2.36 2.36 0 0 1-1.17.28 2.56 2.56 0 0 1-.39 0 1.54 1.54 0 0 1-.37-.14 1.13 1.13 0 0 1-.34-.27 1.31 1.31 0 0 1-.23-.46 2.22 2.22 0 0 1-.06-.71zm.75-.26h1.25a1.09 1.09 0 0 0-.19-.54.52.52 0 0 0-.44-.22.56.56 0 0 0-.44.18 1 1 0 0 0-.18.58zm2.62.19a1.7 1.7 0 0 1 .37-1.16 1.37 1.37 0 0 1 1.07-.4 3 3 0 0 1 .51.05v-1.19h.75v3.29a1 1 0 0 1-.32.74 1.38 1.38 0 0 1-1 .31h-.31a1.45 1.45 0 0 1-.36-.13 1.31 1.31 0 0 1-.35-.27 1.34 1.34 0 0 1-.26-.48 2.35 2.35 0 0 1-.1-.76zm.75 0a1.76 1.76 0 0 0 .14.8.54.54 0 0 0 .5.24c.38 0 .56-.11.56-.34V28.4a3.37 3.37 0 0 0-.49 0 .66.66 0 0 0-.53.21 1.13 1.13 0 0 0-.18.68zm5.04 1.59v-4.15h1.55a1.66 1.66 0 0 1 1.14.37 1.32 1.32 0 0 1 .4 1 1.3 1.3 0 0 1-.41 1 1.61 1.61 0 0 1-1.13.36H126v1.37zm.74-2h.75a.94.94 0 0 0 .67-.18.73.73 0 0 0 .18-.54.68.68 0 0 0-.18-.52.94.94 0 0 0-.67-.18H126zm3.13 2v-4.28h.74v4.28zm1.54-1.01a1.36 1.36 0 0 1 0-.2.87.87 0 0 1 .31-.5 1.18 1.18 0 0 1 .39-.2 2.28 2.28 0 0 1 .62-.08 3.74 3.74 0 0 1 .55.05q0-.6-.66-.6a2.51 2.51 0 0 0-.91.16v-.61a2.63 2.63 0 0 1 .95-.16 1.41 1.41 0 0 1 1 .34 1.3 1.3 0 0 1 .35 1v.84a1 1 0 0 1-.32.73 1.34 1.34 0 0 1-1 .31 1.43 1.43 0 0 1-1-.31 1 1 0 0 1-.28-.77zm.75-.1c0 .33.19.5.58.5.37 0 .55-.16.55-.47v-.39a2.55 2.55 0 0 0-.44 0c-.46-.04-.69.09-.69.36zm2.72 1.11v-2.81a3.13 3.13 0 0 1 1.43-.34 1.4 1.4 0 0 1 1 .34 1.2 1.2 0 0 1 .37.95v1.86h-.75V29a1 1 0 0 0 0-.2.76.76 0 0 0-.09-.18.43.43 0 0 0-.23-.14 1.41 1.41 0 0 0-.39 0 4 4 0 0 0-.58.05v2.44zm3.58-1.52a2 2 0 0 1 .33-1.19 1.45 1.45 0 0 1 2.09 0 1.6 1.6 0 0 1 .35 1.07 3.78 3.78 0 0 1 0 .38h-2a.66.66 0 0 0 .24.54 1 1 0 0 0 .55.14 2.44 2.44 0 0 0 1-.24v.6a2.34 2.34 0 0 1-1.16.28 2.38 2.38 0 0 1-.39 0 1.61 1.61 0 0 1-.38-.14 1.27 1.27 0 0 1-.34-.27 1.31 1.31 0 0 1-.23-.46 2.22 2.22 0 0 1-.06-.71zm.75-.26h1.25a1 1 0 0 0-.19-.54.51.51 0 0 0-.44-.22.54.54 0 0 0-.43.18 1 1 0 0 0-.19.58zm2.37-.68v-.64h.52v-.92h.75v.92h.73v.64h-.73V30a.38.38 0 0 0 .08.27.47.47 0 0 0 .3.07.78.78 0 0 0 .35-.07v.62a1.19 1.19 0 0 1-.47.09.94.94 0 0 1-.72-.27 1.05 1.05 0 0 1-.27-.76v-1.49z"/><path class="cls-2" d="M28.34 20.53a.11.11 0 0 1-.07.1l.05-.05a.08.08 0 0 0 .02-.05z"/><path class="cls-3" d="M77.19 20.76c-.89 0-1.88-.12-2.77-.15a.32.32 0 0 1-.08-.21.5.5 0 0 1 0-.13l.54-1.27a2.9 2.9 0 0 1 .52.34l.1.08a8.69 8.69 0 0 1 1.2.92c.14.1.37.29.49.42z"/><path class="cls-4" d="M118.74 17.45v2.89a.31.31 0 0 1-.3.31h-1.32c.5-1.09 1.02-2.17 1.62-3.2z"/><path class="cls-5" d="M0 18.35v.82a1.12 1.12 0 0 0 .35.9 1.79 1.79 0 0 0 1.17.3h10.66a8.37 8.37 0 0 0 5-1.3l.35-.27z"/><path class="cls-6" d="M25.85 8.8c0 1.68.08 3.52.1 3.82-.31.28-.56.51-.74.66l-.49.44-.59.51v-8a14.53 14.53 0 0 1 2-.13 2 2 0 0 1 0 .24v.24a15.43 15.43 0 0 0-.28 2.22z"/><path class="cls-1" d="M118.74.32v20a.31.31 0 0 1-.3.31h-2.61a1.08 1.08 0 0 1-1.08-1.08V8.03c-1.85 3.22-3.71 6.44-5.55 9.66a.54.54 0 0 1-.46.26.53.53 0 0 1-.46-.26l-4.69-8-.86-1.45-.14-.23v11.46a1.08 1.08 0 0 1-1.08 1.08h-2.6a.3.3 0 0 1-.3-.31V.32a.3.3 0 0 1 .3-.31h3.38a1.1 1.1 0 0 1 1 .56c.19.36.39.71.58 1.06l1.43 2.77.53.95 1.34 2.41c.51.93 1 1.84 1.54 2.77l1.71-3.15 1-1.77.54-1 .73-1.34L114 .78c0-.07.07-.14.11-.2a1.09 1.09 0 0 1 1-.57h3.38a.31.31 0 0 1 .25.31z"/><path class="cls-5" d="M118.74.32v4.23a7.81 7.81 0 0 1-1.62.17 7.6 7.6 0 0 1-4.47-1.45L114 .78c0-.07.07-.14.11-.2a1.09 1.09 0 0 1 1-.57h3.38a.31.31 0 0 1 .25.31z"/><path class="cls-7" d="M72.84 9a7 7 0 0 1-.34 1 5.55 5.55 0 0 1-1.5 2.14c-.11.1-.23.19-.35.28a7 7 0 0 1-2.91 1.29 10.65 10.65 0 0 1-1.84.22h-3.6a.72.72 0 0 0-.54.24.74.74 0 0 0-.21.52v5.95h-2.88a1 1 0 0 1-.6-.19 1.06 1.06 0 0 1-.37-.45 1 1 0 0 1-.1-.46V18.5c2-1.21 3.52-5.55 3.52-10.73A21.08 21.08 0 0 0 59.79 0h2.58v1.3a8.94 8.94 0 0 0 .68 2.38h-.7a.75.75 0 0 0-.51.19.77.77 0 0 0-.26.57v5.88h3.49a7.36 7.36 0 0 0 2-.22 2.63 2.63 0 0 0 1-.49.86.86 0 0 0 .14-.13 2.32 2.32 0 0 0 .53-.82 9.55 9.55 0 0 0 4.1.34z"/><path class="cls-8" d="M73.05 7a9 9 0 0 1-.18 1.85l-.34-2.42C72 2.88 69.37.66 65.5 0A8.1 8.1 0 0 1 71 1.83a5.6 5.6 0 0 1 1.24 1.58 3.51 3.51 0 0 1 .22.48c.06.15.13.31.18.48A8.31 8.31 0 0 1 73.05 7z"/><path class="cls-9" d="M61.12 7.77c0 5.18-1.5 9.52-3.52 10.73V1.1a1.08 1.08 0 0 1 .89-1.1h1.3a21.08 21.08 0 0 1 1.33 7.77zm11.75 1.07V9a9.55 9.55 0 0 1-4.07-.33A4.21 4.21 0 0 0 69.07 7a3.68 3.68 0 0 0-.57-2.17 2.61 2.61 0 0 0-.27-.31l-.07-.07a.94.94 0 0 0-.16-.1 5.16 5.16 0 0 0-3-.65h-2a8.94 8.94 0 0 1-.68-2.38V0h3.18c3.87.64 6.54 2.86 7 6.4z"/><path class="cls-5" d="M133.61 7.22v.14l-.25-.65-.54-1.44-.16-.41-.15.4-.51 1.37-.23.62c-1.32-.12-2.62-.25-3.94-.27l.22-.55.48-1.21v-.07L130.28.7a1.09 1.09 0 0 1 1-.69h2.76a1.09 1.09 0 0 1 1 .69l1.39 3.51.46 1.18.38.94.07.18a10.71 10.71 0 0 1-3.73.71z"/><path class="cls-8" d="M142.82 20.29a.35.35 0 0 1-.36.35h-3a1.07 1.07 0 0 1-1-.69l-.06-.16-1.52-4a2.33 2.33 0 0 1-.11-.28 1.15 1.15 0 0 0 .44-.69 2.44 2.44 0 0 0-1.8-2.82l-1.76-4.66V7.2a10.71 10.71 0 0 0 3.76-.7l1 2.55 4.1 10.29.31.79a.35.35 0 0 1 0 .16zM131.73 7.25l-1.61 4.2v.07a10.73 10.73 0 0 0-4.53 1v-.09l1.74-4.36.46-1.07c1.32 0 2.62.13 3.94.25z"/><path class="cls-7" d="M126.57 20.39a1.06 1.06 0 0 1-.69.25h-3a.35.35 0 0 1-.33-.49l2.08-5.22c.08.4.13.82.24 1.22a23 23 0 0 0 1.7 4.24z"/><path class="cls-5" d="M130.1 11.52l-.17.42-.05.14c-.47 1.23-.94 2.45-1.4 3.68L126.89 20a1 1 0 0 1-.32.44 23 23 0 0 1-1.7-4.24c-.11-.4-.16-.82-.24-1.22l.94-2.39a10.73 10.73 0 0 1 4.53-1.07z"/><path class="cls-6" d="M137.2 14.79a1.15 1.15 0 0 1-.44.69l-1.32-3.4v-.06a2.44 2.44 0 0 1 1.76 2.77z"/><path class="cls-7" d="M28.12 11.53v8a.93.93 0 0 1-.05.29 1 1 0 0 1-.14.32 1.08 1.08 0 0 1-.91.49h-2.89v-6.4l.16-.15.17-.14L26 12.62l.52-.31a12 12 0 0 1 1.24-.61l.36-.15z"/><path class="cls-7" d="M28.12 11.53l-.18.07-.4.16a9.31 9.31 0 0 0-1.11.59l-.46.27c-.09-1-.13-1.88-.13-2.56A20.77 20.77 0 0 1 26 6.57c0-.2.06-.37.08-.48h2z"/><path class="cls-1" d="M28.12 0v6.07h-2a14.53 14.53 0 0 0-2 .13V1.11a1.1 1.1 0 0 1 1-1.09z"/><path class="cls-2" d="M28.12 11.53v8a.93.93 0 0 1-.05.29 1 1 0 0 1-.14.32 23.2 23.2 0 0 1-1.31-3.62 22.34 22.34 0 0 1-.62-3.9q.48-.31 1.08-.63a11.78 11.78 0 0 1 1.09-.52s-.06.02-.05.06z"/><path class="cls-10" d="M28.12 0v6.08h-2.01A28.64 28.64 0 0 1 27.75.4a1.45 1.45 0 0 0 .07-.35L28 0h.11z"/><path class="cls-6" d="M80.33 9.51a18.58 18.58 0 0 0 .23 5.72c-.07.2-.15.41-.23.62l-1.59 4.2a1.06 1.06 0 0 1-.73.67.9.9 0 0 1-.28 0h-3a.35.35 0 0 1-.29-.15l2.68.08a4.73 4.73 0 0 0-.4-.37 8.69 8.69 0 0 0-1.2-.92l-.1-.08a2.9 2.9 0 0 0-.52-.34l3-7.5 2.86-7.22.24-.53.61-1.52.26-.09a3.38 3.38 0 0 0 2.09-2h1.69a13.36 13.36 0 0 0-5.32 9.43z"/><path class="cls-1" d="M94.68 20.45a.36.36 0 0 1-.36.36h-3a1.09 1.09 0 0 1-1-.72l-1.56-4.21-1.41-3.71-.37-1-.3-.81-2-5.45-2.34 6-.3.77-.19.48-1.2 3.07a18.27 18.27 0 0 1-.19-5.72A13.33 13.33 0 0 1 85.7 0h.3a1.1 1.1 0 0 1 1 .7l.94 2.3.33.87.27.7 2 5.24 4.07 10.47a.59.59 0 0 1 .07.17z"/><path class="cls-5" d="M83.93 0a3.38 3.38 0 0 1-2.1 2l-.25.08.57-1.38a1.09 1.09 0 0 1 1-.69z"/><path class="cls-6" d="M118.74 8.17v12.17a.31.31 0 0 1-.3.31h-2.61a1.08 1.08 0 0 1-1.08-1.08V10.4c.13-.13.25-.27.39-.39a9.64 9.64 0 0 1 3.6-1.84zm-16.19 3.01v8.39a1.08 1.08 0 0 1-1.08 1.08h-1.88c0-1-.15-1.93-.11-2.9a13.29 13.29 0 0 1 .75-4.32 3.24 3.24 0 0 1 2.32-2.25zm2.21-3.62a2.57 2.57 0 0 1-1.2 2.18l-.86-1.45-.14-.23v2a2.43 2.43 0 0 1-.38 0 2.59 2.59 0 1 1 2.58-2.58z"/><path class="cls-1" d="M18 4.1l-4.37.47a2.09 2.09 0 0 0-.41-.68A3.17 3.17 0 0 0 11 3.25H5.11a.92.92 0 0 0-.91.92v1.42L0 6.05V1.44A1.22 1.22 0 0 1 .44.36 2.72 2.72 0 0 1 2 0h8.67a11.46 11.46 0 0 1 5.13.91A3.92 3.92 0 0 1 18 4.1z"/><path class="cls-7" d="M18.79 16.72a4.41 4.41 0 0 1-1.3 2.08L0 18.35V16.1l4.2.13v.91h7.54a3.61 3.61 0 0 0 2.31-.58z"/><path class="cls-11" d="M53.07 10.06a7.88 7.88 0 0 0-6.42.7 6.36 6.36 0 0 1-2.42-2.28 17.48 17.48 0 0 0-1.08-1.94 2.27 2.27 0 0 0-3-.22c-1.42 1-2.51.7-3.25-.87a2.37 2.37 0 0 0-1.34-1.39l.06-.1c.11-.16.22-.31.34-.46s.24-.28.37-.41a7.06 7.06 0 0 1 1.84-1.4 9.11 9.11 0 0 1 1.15-.54l.42-.16a17.45 17.45 0 0 0 9.88 2.74c.49 0 1 0 1.45-.05a9 9 0 0 1 1.42 2.9c.05.18.11.36.15.55a14.46 14.46 0 0 1 .4 2.7c.02.06.03.17.03.23z"/><path class="cls-1" d="M53.09 11v.46a14.41 14.41 0 0 1-.58 4 18.42 18.42 0 0 0-4.6 2.15 10.62 10.62 0 0 0-3.91 4h-.57a14.32 14.32 0 0 1-2.69-.24 8.71 8.71 0 0 1-2.57-1c-.13-.07-.26-.14-.38-.22a8.75 8.75 0 0 1-1-.71c-.16-.14-.31-.29-.46-.44-.1-.1-.2-.21-.29-.32l-.15-.17a6 6 0 0 1-.44-.61 4.61 4.61 0 0 1-.33-.58.88.88 0 0 0 .29.18.38.38 0 0 0 .22 0 8 8 0 0 0 5.69-1.3c1.75-1.2 2.68-3.11 3.97-4.37a4.86 4.86 0 0 1 1.33-1 4.07 4.07 0 0 1-.55-.29l-.32-.21-.37-.29-.22-.2a9.4 9.4 0 0 1-1.55-2.38l-.08-.13-.1-.17c0-.06-.08-.13-.13-.18a.76.76 0 0 0-.11-.14l-.08-.09-.12-.11a.8.8 0 0 0-.21-.15l-.12-.07h-.47a1.6 1.6 0 0 0-.52.1 2 2 0 0 0-.31.13h-.11c-.25.13-.51.29-.78.45a2.5 2.5 0 0 1-1.61.31 2.14 2.14 0 0 1-.34-.09l-.18-.07-.18-.09-.22-.15-.12-.09a.73.73 0 0 0-.09-.08l-.08-.08a3.27 3.27 0 0 1-.42-.53 4.61 4.61 0 0 0-.31-.59 1.38 1.38 0 0 0-.14-.24 1.91 1.91 0 0 0-.15-.21l-.18-.22a1.61 1.61 0 0 0-.57-.4h-.13a1.17 1.17 0 0 0-.38 0c.07-.13.15-.25.23-.37a2.37 2.37 0 0 1 1.34 1.39c.74 1.57 1.83 1.86 3.25.87a2.27 2.27 0 0 1 3 .22 16 16 0 0 1 1.08 1.94 6.36 6.36 0 0 0 2.42 2.28 7.89 7.89 0 0 1 6.42-.7c-.02.16-.02.47-.02.8z"/><path class="cls-6" d="M46.63 10.88c-3.43 1.62-3.6 7.27-11 6.63 0 0-.19 0-.51-.22a11.2 11.2 0 0 1-.75-1.87l-.06-.22a15.43 15.43 0 0 1-.51-4.2c0-.67 0-1.31.1-1.91a13.4 13.4 0 0 1 .49-2.52A11.42 11.42 0 0 1 35 5a1.42 1.42 0 0 1 .08-.18c.07-.13.13-.26.2-.38.79-.07 1.33.61 1.85 1.73a2.31 2.31 0 0 0 3.26.83c.79-.47 1.49-1 2.21-.62 1.33.62 1.2 3.2 4.03 4.5z"/><path class="cls-5" d="M19.08 14.74a7.94 7.94 0 0 1-.29 2l-4.74-.17.13-.11a2.81 2.81 0 0 0 .62-2.09 2.84 2.84 0 0 0-.62-2.11 3.37 3.37 0 0 0-2.44-.69h-5a3.39 3.39 0 0 0-2 .44 1.52 1.52 0 0 0-.57 1.37v2.87L0 16.1v-10l4.2-.47V8.5H11a3.12 3.12 0 0 0 2.27-.65 2.78 2.78 0 0 0 .6-2 3.58 3.58 0 0 0-.19-1.29L18 4.1a9.19 9.19 0 0 1 .1 1.09 6.06 6.06 0 0 1-.56 2.64 4 4 0 0 1-1.8 1.81 5.2 5.2 0 0 1 1.08.44 4 4 0 0 1 1.44 1.43 6.22 6.22 0 0 1 .82 3.23zm33.43.67c-.07.23-.14.44-.22.65a8.93 8.93 0 0 1-.85 1.78A10.62 10.62 0 0 1 49.23 20c-.16.11-.33.21-.51.31l-.13.07a8.67 8.67 0 0 1-2.45.89 12.74 12.74 0 0 1-2.12.23 10.62 10.62 0 0 1 3.91-4 18.42 18.42 0 0 1 4.58-2.09z"/><path class="cls-12" d="M51.07 3.63c-.48 0-1 .05-1.45.05A17.45 17.45 0 0 1 39.74.94a7.76 7.76 0 0 1 1-.26 14.32 14.32 0 0 1 2.69-.24h.1a13.26 13.26 0 0 1 2.59.24 8.87 8.87 0 0 1 2.58 1 7.5 7.5 0 0 1 2.2 1.79.46.46 0 0 1 .1.03 1.47 1.47 0 0 0 .07.13z"/></g></g></svg>